<?xml version="1.0" standalone="no"?><!DOCTYPE svg PUBLIC "-//W3C//DTD SVG 1.1//EN" "http://www.w3.org/Graphics/SVG/1.1/DTD/svg11.dtd"><svg t="1750170491141" class="icon" viewBox="0 0 1024 1024" version="1.1" xmlns="http://www.w3.org/2000/svg" p-id="2407" xmlns:xlink="http://www.w3.org/1999/xlink" width="200" height="200"><path d="M834.841385 1024L512 464.835517l-322.841385 559.164483-34.647369-20.027381 357.488754-619.246626 357.488754 619.246626-34.647369 20.027381z" fill="#282D33" p-id="2408"></path><path d="M491.972619 0h40.054762v1014.687268h-40.054762z" fill="#282D33" p-id="2409"></path><path d="M81.711715 145.899472h860.57657v671.818502H81.711715z" fill="#F8C44F" p-id="2410"></path><path d="M406.555838 205.981615h475.650303v551.654215H141.793859V205.981615H406.555838z" fill="#FFFFFF" p-id="2411"></path><path d="M902.233522 777.663211H121.766478V185.954234h780.467044zM161.82124 737.608449h700.35752V226.008997H161.82124z" fill="#282D33" p-id="2412"></path><path d="M726.092705 383.82476a52.271465 52.271465 0 1 1-52.271465-52.271464 52.171328 52.171328 0 0 1 52.271465 52.271464zM395.140231 131.880305h233.619401v70.095834H395.140231z" fill="#FFFFFF" p-id="2413"></path><path d="M648.88715 222.00352H375.11285v-110.150596h273.7743z m-233.719538-40.054762h193.664776v-30.041072H415.167612z" fill="#282D33" p-id="2414"></path><path d="M217.096812 281.584979h130.177978v130.278115h-130.177978zM741.613925 281.584979h60.783102v60.783102H741.613925z" fill="#34CA9D" p-id="2415"></path><path d="M346.774105 410.561314h265.362801v265.362801h-265.362801z" fill="#34CA9D" p-id="2416"></path><path d="M344.270683 506.091923A97.633483 97.633483 0 1 1 442.204577 408.458439a97.73362 97.73362 0 0 1-97.933894 97.633484z m0-155.212205A57.578721 57.578721 0 1 0 402.149814 408.458439 57.578721 57.578721 0 0 0 344.270683 350.479171zM815.715236 638.272638H548.650108L682.533151 406.956386z m-197.77039-40.054762h128.475651L682.533151 487.06591z" fill="#282D33" p-id="2417"></path></svg>